<mxfile host="app.diagrams.net" agent="Mozilla/5.0 (Windows NT 10.0; Win64; x64) AppleWebKit/537.36 (KHTML, like Gecko) Chrome/134.0.0.0 Safari/537.36" version="26.2.1">
  <diagram name="Page-1" id="JivPZIo_FvGeEns7PpYZ">
    <mxGraphModel dx="1428" dy="1849" grid="1" gridSize="10" guides="1" tooltips="1" connect="1" arrows="1" fold="1" page="1" pageScale="1" pageWidth="850" pageHeight="1100" math="0" shadow="0">
      <root>
        <mxCell id="0" />
        <mxCell id="1" parent="0" />
        <mxCell id="YtwnHFNun8xwlvGQlnR0-38" value="" style="whiteSpace=wrap;html=1;" parent="1" vertex="1">
          <mxGeometry x="340" y="-420" width="420" height="600" as="geometry" />
        </mxCell>
        <mxCell id="YtwnHFNun8xwlvGQlnR0-1" value="Create Event" style="ellipse;whiteSpace=wrap;html=1;" parent="1" vertex="1">
          <mxGeometry x="578" y="-400" width="140" height="40" as="geometry" />
        </mxCell>
        <mxCell id="YtwnHFNun8xwlvGQlnR0-2" value="Edit Event" style="ellipse;whiteSpace=wrap;html=1;" parent="1" vertex="1">
          <mxGeometry x="579" y="-260" width="140" height="40" as="geometry" />
        </mxCell>
        <mxCell id="YtwnHFNun8xwlvGQlnR0-3" value="Delete Event" style="ellipse;whiteSpace=wrap;html=1;" parent="1" vertex="1">
          <mxGeometry x="578" y="-330" width="140" height="40" as="geometry" />
        </mxCell>
        <mxCell id="YtwnHFNun8xwlvGQlnR0-8" value="Manage Event" style="ellipse;whiteSpace=wrap;html=1;" parent="1" vertex="1">
          <mxGeometry x="374" y="-330" width="140" height="40" as="geometry" />
        </mxCell>
        <mxCell id="YtwnHFNun8xwlvGQlnR0-9" value="&amp;lt;&amp;lt;include&amp;gt;&amp;gt;" style="html=1;verticalAlign=bottom;labelBackgroundColor=none;endArrow=open;endFill=0;dashed=1;rounded=0;entryX=0;entryY=0.5;entryDx=0;entryDy=0;exitX=1;exitY=0;exitDx=0;exitDy=0;" parent="1" source="YtwnHFNun8xwlvGQlnR0-8" target="YtwnHFNun8xwlvGQlnR0-1" edge="1">
          <mxGeometry x="-0.362" y="13" width="160" relative="1" as="geometry">
            <mxPoint x="424" y="-330" as="sourcePoint" />
            <mxPoint x="584" y="-330" as="targetPoint" />
            <mxPoint as="offset" />
          </mxGeometry>
        </mxCell>
        <mxCell id="YtwnHFNun8xwlvGQlnR0-10" value="&amp;lt;&amp;lt;include&amp;gt;&amp;gt;" style="html=1;verticalAlign=bottom;labelBackgroundColor=none;endArrow=open;endFill=0;dashed=1;rounded=0;entryX=0.001;entryY=0.412;entryDx=0;entryDy=0;exitX=1;exitY=1;exitDx=0;exitDy=0;entryPerimeter=0;" parent="1" source="YtwnHFNun8xwlvGQlnR0-8" target="YtwnHFNun8xwlvGQlnR0-2" edge="1">
          <mxGeometry x="-0.4129" y="-36" width="160" relative="1" as="geometry">
            <mxPoint x="456" y="-323" as="sourcePoint" />
            <mxPoint x="588" y="-370" as="targetPoint" />
            <mxPoint as="offset" />
          </mxGeometry>
        </mxCell>
        <mxCell id="YtwnHFNun8xwlvGQlnR0-11" value="&amp;lt;&amp;lt;include&amp;gt;&amp;gt;" style="html=1;verticalAlign=bottom;labelBackgroundColor=none;endArrow=open;endFill=0;dashed=1;rounded=0;entryX=0;entryY=0.5;entryDx=0;entryDy=0;exitX=1;exitY=0.5;exitDx=0;exitDy=0;" parent="1" source="YtwnHFNun8xwlvGQlnR0-8" target="YtwnHFNun8xwlvGQlnR0-3" edge="1">
          <mxGeometry width="160" relative="1" as="geometry">
            <mxPoint x="424" y="-330" as="sourcePoint" />
            <mxPoint x="584" y="-330" as="targetPoint" />
          </mxGeometry>
        </mxCell>
        <mxCell id="YtwnHFNun8xwlvGQlnR0-12" value="Delete User" style="ellipse;whiteSpace=wrap;html=1;" parent="1" vertex="1">
          <mxGeometry x="584" y="-180" width="140" height="40" as="geometry" />
        </mxCell>
        <mxCell id="YtwnHFNun8xwlvGQlnR0-13" value="Verify A Registered User" style="ellipse;whiteSpace=wrap;html=1;" parent="1" vertex="1">
          <mxGeometry x="583" y="-120" width="140" height="40" as="geometry" />
        </mxCell>
        <mxCell id="YtwnHFNun8xwlvGQlnR0-14" value="Manage Registered Users" style="ellipse;whiteSpace=wrap;html=1;" parent="1" vertex="1">
          <mxGeometry x="374" y="-150" width="140" height="40" as="geometry" />
        </mxCell>
        <mxCell id="YtwnHFNun8xwlvGQlnR0-15" value="&amp;lt;&amp;lt;include&amp;gt;&amp;gt;" style="html=1;verticalAlign=bottom;labelBackgroundColor=none;endArrow=open;endFill=0;dashed=1;rounded=0;entryX=0;entryY=0.5;entryDx=0;entryDy=0;exitX=1;exitY=0;exitDx=0;exitDy=0;" parent="1" source="YtwnHFNun8xwlvGQlnR0-14" target="YtwnHFNun8xwlvGQlnR0-12" edge="1">
          <mxGeometry x="-0.3103" y="11" width="160" relative="1" as="geometry">
            <mxPoint x="448" y="-280" as="sourcePoint" />
            <mxPoint x="589" y="-234" as="targetPoint" />
            <mxPoint y="1" as="offset" />
          </mxGeometry>
        </mxCell>
        <mxCell id="YtwnHFNun8xwlvGQlnR0-16" value="&amp;lt;&amp;lt;include&amp;gt;&amp;gt;" style="html=1;verticalAlign=bottom;labelBackgroundColor=none;endArrow=open;endFill=0;dashed=1;rounded=0;entryX=0;entryY=0.5;entryDx=0;entryDy=0;exitX=1;exitY=1;exitDx=0;exitDy=0;" parent="1" source="YtwnHFNun8xwlvGQlnR0-14" target="YtwnHFNun8xwlvGQlnR0-13" edge="1">
          <mxGeometry x="-0.0885" y="-29" width="160" relative="1" as="geometry">
            <mxPoint x="524" y="-120" as="sourcePoint" />
            <mxPoint x="594" y="-150" as="targetPoint" />
            <mxPoint as="offset" />
          </mxGeometry>
        </mxCell>
        <mxCell id="YtwnHFNun8xwlvGQlnR0-17" value="Filter Available Events" style="ellipse;whiteSpace=wrap;html=1;" parent="1" vertex="1">
          <mxGeometry x="593" y="120" width="140" height="40" as="geometry" />
        </mxCell>
        <mxCell id="YtwnHFNun8xwlvGQlnR0-18" value="View Event Details" style="ellipse;whiteSpace=wrap;html=1;" parent="1" vertex="1">
          <mxGeometry x="593" y="-60" width="140" height="40" as="geometry" />
        </mxCell>
        <mxCell id="YtwnHFNun8xwlvGQlnR0-19" value="View Event&#39;s Venue Details" style="ellipse;whiteSpace=wrap;html=1;" parent="1" vertex="1">
          <mxGeometry x="594" y="10" width="140" height="40" as="geometry" />
        </mxCell>
        <mxCell id="YtwnHFNun8xwlvGQlnR0-20" value="View Available Events" style="ellipse;whiteSpace=wrap;html=1;" parent="1" vertex="1">
          <mxGeometry x="378" y="-20" width="140" height="40" as="geometry" />
        </mxCell>
        <mxCell id="YtwnHFNun8xwlvGQlnR0-21" value="&amp;lt;&amp;lt;extend&amp;gt;&amp;gt;" style="html=1;verticalAlign=bottom;labelBackgroundColor=none;endArrow=open;endFill=0;dashed=1;rounded=0;exitX=0;exitY=0.5;exitDx=0;exitDy=0;entryX=1;entryY=0;entryDx=0;entryDy=0;" parent="1" source="YtwnHFNun8xwlvGQlnR0-18" target="YtwnHFNun8xwlvGQlnR0-20" edge="1">
          <mxGeometry x="0.3991" y="-8" width="160" relative="1" as="geometry">
            <mxPoint x="544" y="-50" as="sourcePoint" />
            <mxPoint x="704" y="-50" as="targetPoint" />
            <mxPoint as="offset" />
          </mxGeometry>
        </mxCell>
        <mxCell id="YtwnHFNun8xwlvGQlnR0-22" value="&amp;lt;&amp;lt;extend&amp;gt;&amp;gt;" style="html=1;verticalAlign=bottom;labelBackgroundColor=none;endArrow=open;endFill=0;dashed=1;rounded=0;exitX=0;exitY=0.5;exitDx=0;exitDy=0;entryX=1;entryY=1;entryDx=0;entryDy=0;" parent="1" source="YtwnHFNun8xwlvGQlnR0-19" target="YtwnHFNun8xwlvGQlnR0-20" edge="1">
          <mxGeometry x="0.0616" y="-8" width="160" relative="1" as="geometry">
            <mxPoint x="603" y="-30" as="sourcePoint" />
            <mxPoint x="507" y="-4" as="targetPoint" />
            <mxPoint as="offset" />
          </mxGeometry>
        </mxCell>
        <mxCell id="YtwnHFNun8xwlvGQlnR0-23" value="Search for event, venue, user" style="ellipse;whiteSpace=wrap;html=1;" parent="1" vertex="1">
          <mxGeometry x="378" y="121" width="140" height="40" as="geometry" />
        </mxCell>
        <mxCell id="YtwnHFNun8xwlvGQlnR0-24" value="&amp;lt;&amp;lt;extend&amp;gt;&amp;gt;" style="html=1;verticalAlign=bottom;labelBackgroundColor=none;endArrow=open;endFill=0;dashed=1;rounded=0;exitX=0;exitY=0.5;exitDx=0;exitDy=0;entryX=1;entryY=0.5;entryDx=0;entryDy=0;" parent="1" source="YtwnHFNun8xwlvGQlnR0-17" target="YtwnHFNun8xwlvGQlnR0-23" edge="1">
          <mxGeometry x="0.0304" width="160" relative="1" as="geometry">
            <mxPoint x="604" y="50" as="sourcePoint" />
            <mxPoint x="507" y="34" as="targetPoint" />
            <mxPoint as="offset" />
          </mxGeometry>
        </mxCell>
        <mxCell id="YtwnHFNun8xwlvGQlnR0-27" style="edgeStyle=orthogonalEdgeStyle;rounded=0;orthogonalLoop=1;jettySize=auto;html=1;exitX=0.5;exitY=0.5;exitDx=0;exitDy=0;exitPerimeter=0;entryX=0;entryY=0.5;entryDx=0;entryDy=0;" parent="1" source="YtwnHFNun8xwlvGQlnR0-25" target="YtwnHFNun8xwlvGQlnR0-8" edge="1">
          <mxGeometry relative="1" as="geometry" />
        </mxCell>
        <mxCell id="YtwnHFNun8xwlvGQlnR0-28" style="edgeStyle=orthogonalEdgeStyle;rounded=0;orthogonalLoop=1;jettySize=auto;html=1;exitX=0.5;exitY=0.5;exitDx=0;exitDy=0;exitPerimeter=0;entryX=0;entryY=0.5;entryDx=0;entryDy=0;" parent="1" source="YtwnHFNun8xwlvGQlnR0-25" target="YtwnHFNun8xwlvGQlnR0-14" edge="1">
          <mxGeometry relative="1" as="geometry" />
        </mxCell>
        <mxCell id="YtwnHFNun8xwlvGQlnR0-25" value="Admin" style="shape=umlActor;verticalLabelPosition=bottom;verticalAlign=top;html=1;" parent="1" vertex="1">
          <mxGeometry x="294" y="-250" width="30" height="60" as="geometry" />
        </mxCell>
        <mxCell id="YtwnHFNun8xwlvGQlnR0-30" style="edgeStyle=orthogonalEdgeStyle;rounded=0;orthogonalLoop=1;jettySize=auto;html=1;exitX=0.5;exitY=0.5;exitDx=0;exitDy=0;exitPerimeter=0;entryX=0;entryY=0.5;entryDx=0;entryDy=0;" parent="1" source="YtwnHFNun8xwlvGQlnR0-29" target="YtwnHFNun8xwlvGQlnR0-20" edge="1">
          <mxGeometry relative="1" as="geometry" />
        </mxCell>
        <mxCell id="YtwnHFNun8xwlvGQlnR0-31" style="edgeStyle=orthogonalEdgeStyle;rounded=0;orthogonalLoop=1;jettySize=auto;html=1;exitX=0.5;exitY=0.5;exitDx=0;exitDy=0;exitPerimeter=0;entryX=0;entryY=0.5;entryDx=0;entryDy=0;" parent="1" source="YtwnHFNun8xwlvGQlnR0-29" target="YtwnHFNun8xwlvGQlnR0-23" edge="1">
          <mxGeometry relative="1" as="geometry" />
        </mxCell>
        <mxCell id="YtwnHFNun8xwlvGQlnR0-33" style="edgeStyle=orthogonalEdgeStyle;rounded=0;orthogonalLoop=1;jettySize=auto;html=1;exitX=0.5;exitY=0.5;exitDx=0;exitDy=0;exitPerimeter=0;entryX=0;entryY=0.5;entryDx=0;entryDy=0;" parent="1" source="YtwnHFNun8xwlvGQlnR0-29" target="YtwnHFNun8xwlvGQlnR0-32" edge="1">
          <mxGeometry relative="1" as="geometry" />
        </mxCell>
        <mxCell id="YtwnHFNun8xwlvGQlnR0-29" value="User" style="shape=umlActor;verticalLabelPosition=bottom;verticalAlign=top;html=1;" parent="1" vertex="1">
          <mxGeometry x="294" y="40" width="30" height="60" as="geometry" />
        </mxCell>
        <mxCell id="YtwnHFNun8xwlvGQlnR0-32" value="Create Account" style="ellipse;whiteSpace=wrap;html=1;" parent="1" vertex="1">
          <mxGeometry x="377" y="50" width="140" height="40" as="geometry" />
        </mxCell>
        <mxCell id="YtwnHFNun8xwlvGQlnR0-36" style="edgeStyle=orthogonalEdgeStyle;rounded=0;orthogonalLoop=1;jettySize=auto;html=1;exitX=0.5;exitY=0.5;exitDx=0;exitDy=0;exitPerimeter=0;entryX=0.5;entryY=0;entryDx=0;entryDy=0;" parent="1" source="YtwnHFNun8xwlvGQlnR0-34" target="YtwnHFNun8xwlvGQlnR0-8" edge="1">
          <mxGeometry relative="1" as="geometry">
            <Array as="points">
              <mxPoint x="280" y="-69" />
              <mxPoint x="280" y="-350" />
              <mxPoint x="444" y="-350" />
            </Array>
          </mxGeometry>
        </mxCell>
        <mxCell id="YtwnHFNun8xwlvGQlnR0-34" value="Venue" style="shape=umlActor;verticalLabelPosition=bottom;verticalAlign=top;html=1;" parent="1" vertex="1">
          <mxGeometry x="294" y="-99" width="30" height="60" as="geometry" />
        </mxCell>
        <mxCell id="YtwnHFNun8xwlvGQlnR0-35" style="edgeStyle=orthogonalEdgeStyle;rounded=0;orthogonalLoop=1;jettySize=auto;html=1;exitX=0.5;exitY=0.5;exitDx=0;exitDy=0;exitPerimeter=0;entryX=0.5;entryY=0.5;entryDx=0;entryDy=0;entryPerimeter=0;" parent="1" source="YtwnHFNun8xwlvGQlnR0-34" target="YtwnHFNun8xwlvGQlnR0-29" edge="1">
          <mxGeometry relative="1" as="geometry">
            <Array as="points">
              <mxPoint x="280" y="-69" />
              <mxPoint x="280" y="70" />
            </Array>
          </mxGeometry>
        </mxCell>
      </root>
    </mxGraphModel>
  </diagram>
</mxfile>
